<?xml version="1.0" encoding="UTF-8"?>
<svg id="Layer_1" data-name="Layer 1" xmlns="http://www.w3.org/2000/svg" viewBox="0 0 2873.1 1609.89">
  <defs>
    <style>
      .cls-1 {
        fill: none;
      }

      .cls-2 {
        fill: #011729;
      }

      .cls-3 {
        fill: #032032;
      }

      .cls-4 {
        fill: #efb286;
      }

      .cls-5 {
        fill: #f1a34e;
      }

      .cls-6 {
        fill: #ea0037;
      }

      .cls-7 {
        fill: #e57111;
      }

      .cls-8 {
        fill: #aec9ea;
      }

      .cls-9 {
        fill: #bddbed;
      }

      .cls-10 {
        fill: #d27f29;
      }

      .cls-11 {
        fill: #d3e8f9;
      }

      .cls-12 {
        fill: #1c2f36;
      }

      .cls-13 {
        fill: #0d1719;
      }

      .cls-14 {
        fill: #6d98d0;
      }

      .cls-15 {
        fill: #86bce7;
      }

      .cls-16 {
        fill: #4e2f19;
      }
    </style>
  </defs>
  <path class="cls-11" d="M2813,474.22c-39.88-363.43-488.36-624.19-728.99-377.25-274.89,282.1-588.46,163.39-588.46,163.39,0,0-1571.69-613.4-1274.54,517.3,297.15,1130.69,2237.56,306.11,2237.56,306.11,0,0,406.09-138.87,354.43-609.56Z"/>
  <path class="cls-8" d="M751.82,1357.66s189.32-202.3,39.71-397.55c-149.61-195.28-195.08-55.23-249.44-344.59-54.42-289.36-73.71-409.5-165.07-354.68-91.36,54.84-227.61,345.45-130.43,557.73,97.18,212.26,283.91,166.36,236.55,335.61-47.39,169.22,11.93,228.69,82.6,270.78,78.08,46.54,89.83,31.81,186.09-67.31Z"/>
  <path class="cls-14" d="M641.85,1407.23c26.06-87.35,29.76-181.24,14.81-272.16-7.18-45.69-22.64-89.85-41.97-132.02l-16.32-30.85c-5.49-10.26-12.76-19.45-19.07-29.22-12.15-20-28.73-36.58-43.56-54.54-62.23-64.49-111.74-140.41-140.53-225.27-28.42-84.84-35.32-176.72-23.49-266.82-10.86,44.21-15.17,90.09-14.71,135.98,1.37,45.89,8.47,91.74,21.07,136.2,12.47,44.58,32.52,86.77,56.05,126.56,23.12,40.24,54.21,75.29,84.71,109.41,14.15,16.98,30.14,32.55,41.78,51.5,6.05,9.25,13.08,17.91,18.38,27.64l15.95,29.18c19.62,39.75,34.7,81.94,44.18,125.69,9.38,43.73,13.97,88.65,14.18,133.71,.57,45.05-2.48,90.47-11.46,135.02Z"/>
  <path class="cls-14" d="M579.86,1304.19s54.39-180.07-95.4-253.93c-149.8-73.87-135.36,25.05-255.47-134.72-120.15-159.77-168.02-227.1-207.15-166.26-39.12,60.86-34.65,278.73,88.35,378.72,122.99,99.97,222.84,15.89,244.92,133.14,22.05,117.25,76.04,135.62,131.72,139.98,61.52,4.85,64.25-7.66,93.03-96.94Z"/>
  <path class="cls-8" d="M527.83,1367.43c-10.41-61.01-36.39-119.27-72.84-170.12-18.12-25.65-40.81-47.88-65.25-67.74l-19.21-13.87c-6.43-4.59-13.62-8-20.4-12.05-13.4-8.52-28.49-13.62-42.92-20.1-57.27-20.54-110.24-51.86-153.29-94.86-42.81-43.09-74.65-96.95-94.55-155.35,6.69,30.18,17.87,59.4,31.95,87.19,14.64,27.52,32.75,53.29,53.79,76.57,21,23.38,45.89,43.03,72.18,60.17,26.17,17.55,55.64,29.53,84.46,41.12,13.73,6.08,28.14,10.75,40.92,18.78,6.47,3.81,13.35,6.97,19.5,11.3l18.49,12.97c23.89,18.29,45.77,39.43,64.7,63.22,18.86,23.8,35.16,49.76,48.84,77.13,13.9,27.24,25.7,55.82,33.64,85.63Z"/>
  <path class="cls-8" d="M2684.32,1423.05c0,103.19-534.96,186.84-1194.81,186.84s-1194.77-83.64-1194.77-186.84,534.89-186.84,1194.77-186.84,1194.81,83.65,1194.81,186.84Z"/>
  <g>
    <path class="cls-6" d="M1446.84,1553.99c-129,0-250.33-15.19-341.64-42.77-92.67-27.99-143.7-65.78-143.7-106.41s51.03-78.42,143.7-106.41c91.31-27.58,212.64-42.77,341.64-42.77s250.33,15.19,341.64,42.77c92.67,27.99,143.7,65.78,143.7,106.41s-51.03,78.42-143.7,106.41c-91.31,27.58-212.64,42.77-341.64,42.77Zm0-290.96c-128.3,0-248.87,15.08-339.5,42.45-43.85,13.24-78.21,28.62-102.14,45.71-24.09,17.2-36.3,35.24-36.3,53.62s12.21,36.42,36.3,53.62c23.93,17.09,58.29,32.47,102.14,45.71,90.63,27.38,211.2,42.45,339.5,42.45s248.87-15.08,339.5-42.45c43.85-13.24,78.21-28.62,102.14-45.71,24.09-17.2,36.3-35.24,36.3-53.62s-12.21-36.42-36.3-53.62c-23.93-17.09-58.29-32.47-102.14-45.71-90.63-27.38-211.2-42.45-339.5-42.45Z"/>
    <g>
      <g>
        <path class="cls-16" d="M1880.52,474.28l-59.58,15.82-3.05,16.07s-5.75-5.96-10.55-1.67c-4.8,4.29,.98,11.9,.98,11.9l-10.92,11.36c-5.91-12.52-11.37-31.52-5.68-53.14,10.16-38.59,70.46-38.45,96.45-35.84,0,0,3.01,31.27-7.66,35.51Z"/>
        <path class="cls-4" d="M1857.77,550.23l5.94,15.86-3.2,3.02-26.02,24.59-29.74-26.22,2.22-24.03s-4.91-5.85-9.56-15.69l10.92-11.36s-5.78-7.61-.98-11.9c4.8-4.28,10.55,1.67,10.55,1.67l3.05-16.07,59.58-15.82s11.41,65.93-22.74,75.95Z"/>
      </g>
      <line class="cls-1" x1="1797.4" y1="527.75" x2="1797.15" y2="528.01"/>
      <path class="cls-3" d="M2061.5,1274.55l4.12-15.53-75.93-216.39-135.02-77.15-116.61,449.29,38.18,25.74h-71.41l7-24.76,43.89-516.19,.05-.52,34.29-24.16,28.4-1.1,89.44,.4s.99,2.01,2.23,3.26c20.62,20.73,132.65,133.41,135.91,138.04,3.59,5.1,38.5,244.59,38.5,244.59l32.22,30.33-55.26-15.86Z"/>
      <g>
        <path d="M1669.06,906.61h-38.85c-7.68,0-13.93,6.25-13.93,13.93v18.29h66.7v-18.29c0-7.68-6.25-13.93-13.93-13.93Zm-43.98,13.93c0-2.83,2.31-5.14,5.14-5.14h38.85c2.83,0,5.14,2.31,5.14,5.14v9.5h-49.12v-9.5Z"/>
        <rect class="cls-13" x="1558.08" y="999.11" width="182.81" height="56.78"/>
        <polygon class="cls-12" points="1741.19 999.11 1649.28 1025.6 1558.08 999.11 1558.08 927.74 1741.19 927.74 1741.19 999.11"/>
        <path class="cls-16" d="M1636.82,1018.97h25.14c2.38,0,4.32,1.94,4.32,4.32v4.62c0,2.38-1.94,4.32-4.32,4.32h-25.14c-2.38,0-4.32-1.94-4.32-4.32v-4.62c0-2.38,1.94-4.32,4.32-4.32Z"/>
      </g>
      <g>
        <path class="cls-2" d="M1818.45,873.78c-.22,15.75-.37,25.27-.37,25.27l-62.37,.51-3.29,.03-21.6-211.22-32.7,29.69-43.64,174.44-11.25-.49,21.2-185.8,44.54-84.79,95.77-53.96,13.41,11.9c3.84,17.42,1.32,221.93,.3,294.41Z"/>
        <path class="cls-9" d="M1907.43,874.74c-.36-.37-.55-.56-.55-.56l-88.42-.39c1.02-72.47,3.55-276.99-.3-294.41l-13.41-11.9,29.74,26.22,29.22-27.61s8.96,18.81,21.68,66.09c10.15,37.74,18.91,184.78,22.04,242.56Z"/>
        <path class="cls-2" d="M2068.67,590.25s-68.17,117.83-89.57,119.06c-21.4,1.22-56.09-13.16-56.09-13.16l-12.89,181.3-1.48,20.79s-35.49,4.03-36.27-10.56c-.13-2.4,25.71-246.83-16.82-313.87l8.16-7.71h0l49.28,34.65s63.6,59.62,66.11,61.21c2.5,1.59,79.59-81.27,79.59-81.27l9.98,9.57Z"/>
        <path class="cls-4" d="M2058.69,580.68s-7.33-24.3,.78-24.59c8.11-.29,8.21,10,8.21,10,0,0,4.63-15.3,10.55-15.3,8,0,15.58,8.54,12.62,18.37-2.96,9.83-22.17,21.09-22.17,21.09l-9.98-9.57Z"/>
        <path class="cls-4" d="M1654.48,892.5s10.32,11.23,7.65,15.84c-2.67,4.61-10.01-5.03-10.01-5.03,0,0,3.75,16.9,.39,18.33-3.36,1.42-18.73,3.62-19.66-2.83-.93-6.45-2.79-25.02,10.38-26.79l11.25,.48Z"/>
        <path class="cls-6" d="M1836.49,591.8l-2,1.89-2.37-2.09c.48,11.5,.7,25.4,.6,36.94-.96,59.81-6.52,146-38.54,196.92-5.6,8.63-12.29,15.98-19.71,20.88l-7.85,27.44,26.56-2.63c5.55-4.54,10.32-9.66,14.44-15.04,45.89-60.89,38.1-191.14,28.87-264.32Z"/>
      </g>
    </g>
  </g>
  <path class="cls-15" d="M858.35,1339.87c-18.11-2.23-59.31-10.13-55.91-35.5,3.2-23.88,43.18,.99,64.06,15.77-30.61-40.38-90.74-128.24-46.75-143,34.83-11.69,54.61,50.9,64.79,102.01-7.82-73.06-11.15-185,42.55-181.59,58.19,3.7,32.12,117.62,13.95,178.47,12.88-34.84,33.84-78.84,52.75-60.92,29.94,28.37-51.47,105.51-51.47,105.51,0,0,43.42-36.97,50.41-13.85,5.67,18.77-44.74,29.66-63.95,33.1h-70.43Z"/>
  <path class="cls-14" d="M752.53,1363.56s-115.55-53.1-85.87-162.03c29.68-108.94,73.31-57.33,46.19-189.71-27.09-132.4-39.75-186.79,8.58-179.36,48.34,7.45,156.67,107.29,152.22,214.35-4.45,107.06-91.76,119.97-42.26,183.66,49.5,63.68,34.62,99.24,11.9,129.4-25.1,33.33-32.65,29.1-90.75,3.7Z"/>
  <path class="cls-8" d="M798.12,1389.6c-26.24-32.59-44.11-71.84-53.53-113.07-4.87-20.66-5.97-42.11-5.08-63.38l1.58-15.94c.55-5.31,2.05-10.48,3.03-15.73,1.69-10.6,5.86-20.53,9.04-30.73,15.25-38.2,23.11-79.05,20.62-120.11-2.65-40.98-15.66-81.22-36.33-117.45,12.29,16.9,22.09,35.65,29.85,55.22,7.38,19.74,12.32,40.45,14.68,61.53,2.43,21.11,1.24,42.52-1.85,63.5-2.84,21.11-9.96,41.4-17,61.19-3.07,9.67-7.15,19.07-8.81,29.13-.97,4.98-2.45,9.88-3.01,14.94l-1.71,15.17c-1.43,20.3-.53,40.84,3.04,61.07,3.61,20.21,9.46,40.09,17.19,59.27,7.57,19.24,16.75,38.02,28.3,55.38Z"/>
  <g>
    <path class="cls-5" d="M2406.83,1374.59s-127.99-136.77-26.85-268.76c101.15-132.01,131.88-37.34,168.63-232.95,36.8-195.62,49.83-276.83,111.6-239.78,61.76,37.08,153.87,233.54,88.17,377.04-65.7,143.5-191.93,112.47-159.91,226.89,32.03,114.4-8.06,154.6-55.85,183.06-52.78,31.46-60.72,21.51-125.8-45.5Z"/>
    <path class="cls-7" d="M2481.18,1408.1c-17.62-59.06-20.12-122.53-10.01-183.99,4.86-30.89,15.31-60.74,28.37-89.25l11.03-20.86c3.72-6.93,8.63-13.15,12.9-19.76,8.21-13.51,19.42-24.73,29.44-36.87,42.07-43.59,75.54-94.91,95.01-152.29,19.21-57.35,23.88-119.46,15.88-180.38,7.34,29.89,10.25,60.91,9.94,91.93-.93,31.02-5.73,62.02-14.25,92.08-8.43,30.13-21.99,58.66-37.9,85.56-15.62,27.2-36.64,50.9-57.26,73.96-9.57,11.48-20.38,22.01-28.25,34.81-4.1,6.25-8.85,12.11-12.42,18.69l-10.78,19.73c-13.26,26.87-23.46,55.39-29.87,84.97-6.34,29.57-9.44,59.93-9.58,90.39-.39,30.46,1.67,61.17,7.75,91.28Z"/>
    <path class="cls-10" d="M2481.1,1376.11s-36.78-121.74,64.49-171.66c101.27-49.94,91.51,16.94,172.7-91.08,81.23-108.01,113.59-153.52,140.04-112.39,26.44,41.14,23.42,188.43-59.72,256.02-83.14,67.59-150.66,10.74-165.58,90.02-14.91,79.26-51.4,91.68-89.05,94.63-41.59,3.28-43.43-5.17-62.89-65.53Z"/>
    <path class="cls-5" d="M2516.28,1418.87c7.03-41.24,24.6-80.63,49.24-115.01,12.25-17.34,27.59-32.37,44.11-45.79l12.98-9.38c4.34-3.1,9.21-5.41,13.79-8.15,9.06-5.76,19.26-9.21,29.01-13.59,38.72-13.88,74.52-35.06,103.63-64.13,28.94-29.13,50.46-65.54,63.92-105.02-4.52,20.4-12.08,40.16-21.6,58.94-9.89,18.6-22.13,36.03-36.36,51.76-14.19,15.81-31.02,29.09-48.8,40.68-17.69,11.86-37.61,19.97-57.1,27.8-9.27,4.11-19.02,7.27-27.66,12.7-4.38,2.57-9.03,4.71-13.18,7.64l-12.49,8.77c-16.16,12.37-30.94,26.66-43.74,42.74-12.75,16.09-23.78,33.64-33.02,52.14-9.39,18.42-17.38,37.73-22.73,57.89Z"/>
  </g>
  <g>
    <path class="cls-5" d="M2178.5,1374.51c-19.93-2.46-65.27-11.14-61.53-39.06,3.52-26.28,47.52,1.08,70.5,17.36-33.68-44.44-99.86-141.14-51.44-157.38,38.33-12.87,60.1,56.02,71.3,112.26-8.6-80.4-12.27-203.6,46.83-199.83,64.04,4.07,35.35,129.44,15.35,196.41,14.17-38.34,37.24-86.77,58.05-67.04,32.94,31.22-56.64,116.11-56.64,116.11,0,0,47.79-40.7,55.47-15.24,6.24,20.66-49.23,32.64-70.37,36.42h-77.51Z"/>
    <path class="cls-10" d="M2353.34,1407.19s-115.55-53.1-85.87-162.03c29.68-108.94,73.31-57.33,46.19-189.71-27.09-132.4-39.75-186.79,8.58-179.36,48.34,7.45,156.67,107.29,152.22,214.35-4.45,107.06-91.76,119.97-42.26,183.66,49.5,63.68,34.62,99.24,11.9,129.39-25.1,33.33-32.65,29.1-90.75,3.69Z"/>
    <path class="cls-5" d="M2408.67,1409.17c-26.24-32.6-44.11-71.85-53.53-113.07-4.87-20.66-5.97-42.11-5.08-63.38l1.58-15.94c.55-5.31,2.05-10.48,3.03-15.73,1.69-10.6,5.86-20.53,9.04-30.73,15.25-38.2,23.11-79.05,20.62-120.11-2.65-40.98-15.66-81.22-36.33-117.45,12.29,16.9,22.09,35.65,29.85,55.22,7.38,19.74,12.32,40.45,14.68,61.53,2.43,21.11,1.24,42.52-1.85,63.51-2.84,21.11-9.96,41.4-17,61.18-3.07,9.67-7.16,19.07-8.81,29.13-.97,4.98-2.45,9.88-3.01,14.94l-1.71,15.17c-1.44,20.3-.53,40.84,3.04,61.07,3.61,20.21,9.46,40.09,17.19,59.27,7.57,19.24,16.75,38.02,28.3,55.39Z"/>
  </g>
</svg>