<?xml version="1.0" encoding="UTF-8"?>
<svg xmlns="http://www.w3.org/2000/svg" viewBox="0 0 4652.8 3736.81">
  <defs>
    <style>
      .cls-1 {
        stroke: #0dff95;
        stroke-width: 3px;
      }

      .cls-1, .cls-2, .cls-3, .cls-4, .cls-5, .cls-6, .cls-7, .cls-8, .cls-9, .cls-10, .cls-11, .cls-12, .cls-13, .cls-14, .cls-15 {
        stroke-miterlimit: 10;
      }

      .cls-1, .cls-2, .cls-10, .cls-11, .cls-12 {
        stroke-linecap: round;
      }

      .cls-1, .cls-2, .cls-10, .cls-11, .cls-12, .cls-13, .cls-14, .cls-15 {
        fill: none;
      }

      .cls-16, .cls-3 {
        fill: #fff;
      }

      .cls-17 {
        fill: #ff7c56;
      }

      .cls-18 {
        fill: #9ed8aa;
      }

      .cls-19 {
        fill: #cbe8ff;
      }

      .cls-20 {
        fill: #dcecff;
      }

      .cls-21 {
        fill: #6e97ff;
      }

      .cls-22 {
        fill: #2d3e50;
      }

      .cls-23 {
        fill: #2f5e89;
      }

      .cls-24 {
        fill: #505275;
      }

      .cls-2 {
        stroke-width: 7px;
      }

      .cls-2, .cls-5 {
        stroke: #d24700;
      }

      .cls-25 {
        fill: #72a6cc;
      }

      .cls-25, .cls-26 {
        mix-blend-mode: multiply;
      }

      .cls-26, .cls-9 {
        fill: #3180ff;
      }

      .cls-3, .cls-4, .cls-6, .cls-7, .cls-8, .cls-9, .cls-11, .cls-13 {
        stroke: #000;
      }

      .cls-4 {
        fill: #e9ecff;
      }

      .cls-5 {
        fill: #ffa033;
      }

      .cls-6 {
        fill: #ebebfc;
      }

      .cls-7 {
        fill: #ecf0f1;
      }

      .cls-8 {
        fill: #ccc7ff;
      }

      .cls-10 {
        stroke: #fff;
      }

      .cls-10, .cls-11 {
        stroke-width: 2px;
      }

      .cls-12 {
        stroke: #9d9dc6;
        stroke-width: 4px;
      }

      .cls-14 {
        stroke: #cbe8ff;
      }

      .cls-15 {
        stroke: #2d3e50;
      }

      .cls-27 {
        isolation: isolate;
      }
    </style>
  </defs>
  <g class="cls-27">
    <g id="Layer_1" data-name="Layer 1">
      <rect class="cls-16" width="4652.8" height="3724.36"/>
      <g>
        <g>
          <circle class="cls-20" cx="4363.78" cy="2803.41" r="104.23" transform="translate(-704.19 3906.76) rotate(-45)"/>
          <circle class="cls-20" cx="4455.22" cy="2677.81" r="36.02" transform="translate(-717.11 2161.42) rotate(-25.31)"/>
        </g>
        <g>
          <circle class="cls-20" cx="425.97" cy="2488.79" r="104.24"/>
          <circle class="cls-20" cx="366.73" cy="2345.17" r="36.02" transform="translate(-2006.81 2320.72) rotate(-80.52)"/>
        </g>
        <path class="cls-20" d="M1.05,3724.36s-53.48-929.25,604.39-1097.23c0,0,75.36-631.71,566.42-759.46,0,0-53.46-1038.94,1181.09-892.64,1234.55,146.31,843.15,960.53,843.15,960.53,0,0,588.56-409.69,966.37,47.48,377.8,457.17-311.57,967.29-311.57,967.29,0,0,453.62-150.25,633.32,216.29,168.58,343.83,168.58,557.74,168.58,557.74H1.05Z"/>
        <g>
          <path class="cls-18" d="M3656.93,3698.66s75.16-314.98-9.69-489.35c-84.85-174.37-48.71,185.59-48.71,185.59,0,0-127.86-437.64-243.98-425.5-90.68,9.49,137.54,366.62,101.61,572.66,0,0-218.98-681.67-521.01-377.36s381.63,266.81,461.6,572.11l260.19-38.15Z"/>
          <path class="cls-10" d="M3566.97,3711.85s-17.22-469.64-212.43-742.44"/>
          <path class="cls-10" d="M3478.94,3724.76s-167.61-510.13-502.3-493.63"/>
          <path class="cls-10" d="M3629.21,3242.48s38.46,193.56-22.76,463.59"/>
          <line class="cls-10" x1="3278.36" y1="3375.35" x2="3145.34" y2="3441.87"/>
          <line class="cls-10" x1="3111.19" y1="3253.84" x2="2977.81" y2="3337.99"/>
          <line class="cls-10" x1="3116.01" y1="3140.89" x2="3196.09" y2="3301.14"/>
          <line class="cls-10" x1="3385.21" y1="3522.91" x2="3339.71" y2="3358.38"/>
          <line class="cls-10" x1="3496.28" y1="3282.87" x2="3399.83" y2="3185.27"/>
          <line class="cls-10" x1="3574.46" y1="3355.44" x2="3542.01" y2="3485.39"/>
          <polyline class="cls-10" points="3687.08 3464.12 3621.91 3627.72 3598.81 3521.49"/>
          <line class="cls-10" x1="3603.26" y1="3294.7" x2="3641.13" y2="3399.78"/>
        </g>
        <g>
          <path class="cls-18" d="M1265.55,3722.28s-270.3-537-144.16-706.39c126.14-169.39,248.68,504.56,248.68,504.56,0,0,90.1-518.98,284.72-464.92,194.62,54.06-111.72,573.04-111.72,573.04,0,0,201.82-273.9,309.94-223.45,108.12,50.46-79.29,317.15-79.29,317.15h-508.17Z"/>
          <path class="cls-10" d="M1654.79,3120.41s-191.01,227.05-194.62,576.64"/>
          <path class="cls-10" d="M1809.76,3451.98s-90.1,46.85-154.97,245.07"/>
          <polyline class="cls-10" points="1128.6 3199.7 1232.65 3273.17 1270.96 3185.28"/>
          <polyline class="cls-10" points="1171.85 3385.31 1289.37 3439.19 1316.01 3355.43"/>
          <polyline class="cls-10" points="1243.93 3596.14 1370.07 3675.43 1171.85 3095.18"/>
          <polyline class="cls-10" points="1416.92 3491.63 1465.77 3602.46 1579.1 3473.61"/>
          <polyline class="cls-10" points="1487.23 3273.17 1503.62 3408.73 1636.77 3304.22"/>
          <polyline class="cls-10" points="1579.1 3120.41 1579.1 3237.73 1680.01 3185.28"/>
        </g>
        <g>
          <path class="cls-23" d="M3768.09,956.8v1510.45c0,64.11-52,116.11-116.11,116.11H1193.87c-64.14,0-116.11-52-116.11-116.11V956.8c0-64.11,51.97-116.11,116.11-116.11H3651.99c64.11,0,116.11,52,116.11,116.11Z"/>
          <rect class="cls-4" x="1333.29" y="1966.01" width="694.06" height="78.62" rx="7.71" ry="7.71"/>
          <rect class="cls-4" x="1338.2" y="2098.34" width="813.65" height="81.63" rx="7.71" ry="7.71"/>
          <g>
            <rect class="cls-21" x="2394.67" y="2073.9" width="95.82" height="172.23"/>
            <rect class="cls-17" x="2610.88" y="1995.5" width="95.82" height="250.63"/>
            <rect class="cls-21" x="2827.09" y="1855.02" width="95.82" height="391.11"/>
            <rect class="cls-17" x="3043.3" y="1667.24" width="95.82" height="578.89"/>
            <rect class="cls-21" x="3259.5" y="1477.33" width="95.82" height="768.8"/>
            <rect class="cls-17" x="3475.71" y="1315.29" width="95.82" height="930.84"/>
          </g>
          <g>
            <path class="cls-21" d="M1742.12,1599.96l219.65-219.65c53.73,58.28,83.2,133.68,83.2,213.31s-31.98,161.47-90.24,220.68l-212.62-214.35Z"/>
            <path class="cls-6" d="M1948.95,1826.46c-58.22,56.27-137.47,90.86-224.81,90.86-178.78,0-323.7-144.92-323.7-323.7s144.92-323.7,323.7-323.7h.46l-.34,330.01,224.7,226.53Z"/>
            <path class="cls-17" d="M1739.03,1278.65c79.52,2.24,153.76,33.7,210.75,89.33l-207.33,207.33-3.42-296.66Z"/>
          </g>
          <polyline class="cls-1" points="2311.14 1089.67 2311.14 2281.72 3596.93 2281.72"/>
          <path class="cls-1" d="M2311.14,1998.87c732.16,25.03,1109.19-230.26,1285.79-899.79"/>
          <rect class="cls-4" x="2414.33" y="1172.79" width="498.53" height="78.62" rx="8.57" ry="8.57"/>
          <rect class="cls-4" x="2414.33" y="1305.25" width="382.2" height="78.62" rx="11.47" ry="11.47"/>
          <rect class="cls-4" x="1333.29" y="1069.6" width="389.18" height="78.62" rx="7.71" ry="7.71"/>
          <rect class="cls-4" x="2124" y="1409.52" width="324.31" height="78.67" rx="7.71" ry="7.71"/>
          <line class="cls-11" x1="2146.12" y1="1488.19" x2="2004.07" y2="1630.23"/>
          <path class="cls-12" d="M1376.2,1096.46c15.83,0,15.83,24.91,31.66,24.91s15.83-24.91,31.66-24.91,15.83,24.91,31.65,24.91,15.83-24.91,31.65-24.91,15.83,24.91,31.66,24.91,15.84-24.91,31.67-24.91,15.83,24.91,31.66,24.91,15.84-24.91,31.69-24.91,15.84,24.91,31.69,24.91"/>
          <path class="cls-12" d="M2143.25,1436.4c15.83,0,15.83,24.91,31.66,24.91s15.83-24.91,31.66-24.91,15.83,24.91,31.65,24.91,15.83-24.91,31.65-24.91,15.83,24.91,31.66,24.91,15.84-24.91,31.67-24.91,15.83,24.91,31.66,24.91,15.84-24.91,31.69-24.91,15.84,24.91,31.69,24.91"/>
          <path class="cls-12" d="M1376.2,1991.18c17.67,0,17.67,24.91,35.33,24.91s17.66-24.91,35.32-24.91,17.67,24.91,35.33,24.91,17.67-24.91,35.34-24.91,17.67,24.91,35.33,24.91,17.67-24.91,35.33-24.91,17.67,24.91,35.34,24.91,17.67-24.91,35.34-24.91,17.67,24.91,35.34,24.91,17.67-24.91,35.34-24.91,17.67,24.91,35.34,24.91,17.67-24.91,35.33-24.91,17.67,24.91,35.34,24.91,17.68-24.91,35.35-24.91,17.67,24.91,35.34,24.91,17.68-24.91,35.37-24.91,17.68,24.91,35.37,24.91"/>
          <path class="cls-12" d="M1376.2,2126.7c21.64,0,21.64,24.91,43.29,24.91s21.63-24.91,43.27-24.91,21.64,24.91,43.28,24.91,21.64-24.91,43.29-24.91,21.64,24.91,43.28,24.91,21.64-24.91,43.28-24.91,21.64,24.91,43.29,24.91,21.65-24.91,43.29-24.91,21.64,24.91,43.29,24.91,21.65-24.91,43.29-24.91,21.65,24.91,43.29,24.91,21.64-24.91,43.28-24.91,21.64,24.91,43.29,24.91,21.65-24.91,43.3-24.91,21.65,24.91,43.29,24.91,21.66-24.91,43.32-24.91,21.66,24.91,43.32,24.91"/>
        </g>
        <path class="cls-25" d="M1874.91,1880.12l-714.83,695.56,357.41,14.97s394.14-219.41,357.41-710.53Z"/>
        <g>
          <polygon class="cls-3" points="1977.06 2840.62 1627.49 2840.62 1802.28 2340.69 2151.85 2340.69 1977.06 2840.62"/>
          <polygon class="cls-19" points="2091.22 2410.19 1798.85 2410.19 1811.36 2374.63 2103.73 2374.63 2091.22 2410.19"/>
          <polygon class="cls-19" points="2065.76 2486.65 1773.39 2486.65 1785.9 2451.09 2078.27 2451.09 2065.76 2486.65"/>
          <polygon class="cls-19" points="2040.3 2563.12 1747.93 2563.12 1760.44 2527.55 2052.81 2527.55 2040.3 2563.12"/>
          <polygon class="cls-19" points="2014.84 2639.58 1722.47 2639.58 1734.98 2604.02 2027.35 2604.02 2014.84 2639.58"/>
          <polygon class="cls-19" points="1989.38 2716.04 1697 2716.04 1709.51 2680.48 2001.89 2680.48 1989.38 2716.04"/>
          <polygon class="cls-19" points="1963.91 2792.51 1671.54 2792.51 1684.05 2756.94 1976.42 2756.94 1963.91 2792.51"/>
          <path class="cls-5" d="M1626.99,2588s60.51-68.41,106.37-45.48c45.86,22.93,74.53,11.47,63.06,37.26-11.47,25.8-71.66-5.73-71.66-5.73l-43,108.92-25.8,6.44-28.97-101.41Z"/>
          <path class="cls-5" d="M1780.02,1958.26s58.52-142.78,74.9-182.58c16.38-39.79,73.76-117.02,88.95-107.67,30.43,18.73-51.5,88.95-51.5,126.4,0,0,88.95,32.77,95.97,53.84s2.34,102.99-21.07,93.63c-23.41-9.36-9.36-46.81-9.36-46.81,0,0-56.18,98.31-95.97,124.06-39.79,25.75-81.92-60.86-81.92-60.86Z"/>
          <path d="M529.47,2843.49s-109.3,156.31-60.19,318.17c77.39,255.11,134.72,561.81,134.72,561.81h644.94l-280.91-879.98h-438.56Z"/>
          <path class="cls-9" d="M487.91,2919.45s45.86-338.23,45.86-495.89-71.66-306.7,226.44-309.57c298.1-2.87,252.24,108.92,493.02,501.62l374.27-58.76,40.13,140.45s-357.07,110.36-460.26,87.42-180.58-180.58-180.58-180.58l-14.33,329.63c-176.83,46.07-351.41,34.28-524.55-14.33Z"/>
          <path d="M914.59,1719.61s97.33,16.66,103.56,153.77c6.28,138.08-31.38,175.74,59.63,247.92,0,0-75.32,3.14-81.59-87.87,0,0-3.14,91.01,62.76,150.63,0,0-105.86,22.29-160.05-12.55-54.19-34.84-147.49-486.42,15.69-451.9Z"/>
          <path class="cls-13" d="M1026.79,2604.14s10.44-223.21-26.41-358.01"/>
          <path class="cls-26" d="M1077.77,2689.4s25.79-328.16-71.76-420.36l20.78,335.1,50.98,85.26Z"/>
          <path class="cls-26" d="M591.02,2366.9c-87.38-93.31,8.76-301.18,148.39-168.36,93.33,88.78,287.44,259.91,287.44,259.91l-3.1,215.65c-305.16-84.99-395.14-267.06-432.73-307.19Z"/>
          <path class="cls-9" d="M602.57,2369.1c-106.37-70.91-60.19-295.24,106.06-197.78,166.25,97.46,272.31,269.44,607.67,154.78,335.37-114.66,472.95-404.16,472.95-404.16l111.79,74.53s-194.14,533.57-676.47,570.41c-412.76,31.53-570.41-163.38-622.01-197.78Z"/>
          <path class="cls-5" d="M914.59,1741.58c34.52,12.55,122.39,216.53-12.55,254.19l-3.14,182.01s-100.7,15.82-125.53-37.66l-31.38-323.23,172.6-75.32Z"/>
          <path d="M583.14,2156.16s99.22-37.99,105.49-201.18c6.28-163.19,34.52-304.4,247.92-229.09,0,0-12.55,128.67-109.84,134.94-97.28,6.28-37.66,56.49-37.66,56.49,0,0,50.21,185.15-6.28,247.92-56.49,62.76-199.64-9.08-199.64-9.08Z"/>
          <path class="cls-14" d="M751.62,2982.51s-28.66,131.85-146.19,108.92l144.75,632.04"/>
          <path class="cls-14" d="M963.73,3002.57s11.47,91.72-88.86,186.32l125.51,534.58"/>
        </g>
        <path class="cls-25" d="M3768.09,1787.01v668.69c0,70.8-52,128.22-116.11,128.22h-259.08c11.74-42.29,94.19-306.17,328.95-333.12,0,0-173.52-179.8-63.64-443.5l109.88-20.29Z"/>
        <g>
          <path class="cls-8" d="M4128.27,1198.32h-263.81c-16.37,0-29.65,15.95-29.65,35.62v168.92l-32.94,222.97,93.6-150.11h232.81c16.37,0,29.65-15.95,29.65-35.62v-206.16c0-19.67-13.27-35.62-29.65-35.62Z"/>
          <g>
            <path class="cls-7" d="M4037.54,1223.29c-43.03-14.18-88.65,10.64-100.51,53.79h0c-7.58,27.57,.55,55.7,18.93,75,4.82,5.06,7.02,12.33,4.55,18.87-.34,.91-.65,1.85-.91,2.81v8.44c0,14.58,9.39,28.12,23.55,31.58,16.94,4.13,34.2-5.94,38.85-22.86,.28-1.01,.5-2.03,.68-3.04,1.2-6.97,5.94-12.64,12.71-14.67,27.18-8.17,49.29-30.84,54.84-61.53,6.88-38.06-15.96-76.27-52.69-88.38Z"/>
            <path class="cls-22" d="M3944.53,1390.96h66.48v49.46c0,.98-.79,1.77-1.77,1.77h-62.93c-.98,0-1.77-.79-1.77-1.77v-49.46h0Z" transform="translate(646.62 -1178.18) rotate(18.31)"/>
            <path class="cls-15" d="M3969.44,1402.06l27.65-123.07s11.75,1.85,15.75,15.36c5.8,19.62,20.85-2.56,34.98,8.09l-59.73,103.28-18.64-3.65Z"/>
          </g>
          <circle class="cls-22" cx="3997.09" cy="1276.12" r="8.09"/>
          <circle class="cls-22" cx="4047.81" cy="1299.57" r="8.09"/>
        </g>
        <g>
          <g>
            <path d="M3628.04,3059.65l-166.25,663.82h722.33s34.4-559.51-77.39-711.24c-111.79-151.73-478.69,47.42-478.69,47.42Z"/>
            <polygon points="2900.8 2761.23 3409.21 2761.23 3269.19 2360.73 2760.77 2360.73 2743.91 2385.62 2900.8 2761.23"/>
            <path class="cls-9" d="M3588.92,2356.31c79.02-122.35,395.1-211.57,581.18-84.12,186.08,127.45,262.55,808.05-22.94,675.5l9.73,155.25s-494.89,58.95-579.01,2.87l16.14-224.4s-193.73,79.02-428.24,0v-114.71s219.22,5.1,308.43-53.53c61.15-40.19,59.96-272.1,114.71-356.87Z"/>
            <path class="cls-26" d="M3165.78,2784.55v94.31s229.41,81.57,428.24,2.55c0,0,383.9,144.84,556.61,121.66l-3.47-55.39-450.33-189.9-531.05,26.76Z"/>
            <rect x="2896.85" y="2732.29" width="800.4" height="50.98"/>
            <rect x="3372.93" y="2731.74" width="323.9" height="51.6"/>
            <line class="cls-13" x1="3626.61" y1="2415.01" x2="3592.21" y2="2850.7"/>
            <path class="cls-5" d="M3792.85,2802.39l33.14-130s-155.49-30.59-224.32,15.29c-68.82,45.88-96.86,43.33-66.28,61.18,30.59,17.84,76.47-56.08,112.16-40.78,0,0-124.9,56.08-68.82,76.47,20.49,7.45,59.73-23.08,132.55-20.39,24.27,.9,49.07,29.31,81.57,38.24Z"/>
            <line class="cls-13" x1="3792.85" y1="2802.39" x2="4134.42" y2="2950.24"/>
            <path class="cls-13" d="M3825.98,2672.39l336.47,61.18s-152.94-303.34-73.92-433.34"/>
            <polygon class="cls-24" points="2882.95 2784.17 3391.37 2784.17 3251.35 2383.67 2742.93 2383.67 2882.95 2784.17"/>
            <path class="cls-5" d="M2966.95,2802.39c58.63,76.47,198.83,76.47,198.83,76.47v-94.31s-127.68-15.34-130-2.55c-5.1,28.04,73.92,12.75,66.28,28.04-11.9,23.8-184.39-71.94-135.1-7.65Z"/>
            <path class="cls-5" d="M3740.51,1790.46c-79.68,24.84-117.96,358.6,20.19,303.92,0,0,24.09,149.65,26.43,184.19,1.77,26.13,129.51,20.15,143.9-37.41,0,0-54.68-132.39-20.68-253.26,46.5-165.3-75.78-226.76-169.84-197.43Z"/>
            <path d="M3670.04,1966.31s129.51,17.27,146.78-23.02c22.5-52.51-30.68-126.08-122.85-99.38-92.17,26.7-82.77-95.1-35.38-139.12,47.39-44.01,199.05,62.27,199.05,62.27l-.17-32.18s43.13,27.06,38.52,80.63c0,0,69.3,10.45,49.13,90.35-20.17,79.91-44.84,155.42-44.84,155.42l-25.9-43.17s46.05-83.46,.03-99c-33.28-11.24-30.98,178.55-95.87,222.91-64.89,44.36-174.47-43.31-108.49-175.71Z"/>
            <path class="cls-2" d="M3685.87,2013.79s46.05,8.63,71.95-11.51"/>
            <path class="cls-19" d="M3014.73,2566.28l11.61,26.7c3.34,7.67,10.91,12.64,19.28,12.64h45.99c12.75,0,21.62-12.66,17.26-24.64l-9.1-25.04c-2.94-8.08-10.5-13.56-19.1-13.83l-48.52-1.52c-13.47-.42-22.79,13.32-17.42,25.68Z"/>
          </g>
          <polyline class="cls-14" points="3697.26 3211.86 3816.19 3371.36 3786.14 3651.85"/>
          <path class="cls-14" d="M4070.23,3150.24s81.44,177.72,0,501.62"/>
        </g>
        <g>
          <path class="cls-8" d="M545.93,1226.84h433.77c31.25,0,56.59,25.33,56.59,56.59v137.31c0,31.25-25.33,56.59-56.59,56.59h-216.88l36.1,140.16-114.25-129.3h-138.74c-31.25,0-56.59-25.33-56.59-56.59v-148.18c0-31.25,25.33-56.59,56.59-56.59Z"/>
          <rect class="cls-4" x="522.51" y="1269.93" width="475.41" height="52.73"/>
          <rect class="cls-4" x="522.51" y="1372.69" width="475.41" height="52.73"/>
        </g>
        <path class="cls-4" d="M1184.14,549.17c-7.94-14.39-26.03-19.6-40.39-11.67l-14.99,8.28c-6.95-6.82-14.49-12.88-22.52-18.09l4.87-16.44c4.67-15.75-4.32-32.29-20.06-36.95l-22.59-6.71c-15.74-4.66-32.28,4.31-36.95,20.06l-4.88,16.45c-9.57,0-19.19,.95-28.74,2.91l-8.07-15.13c-7.73-14.49-25.74-19.97-40.22-12.25l-20.79,11.09c-14.48,7.72-19.96,25.73-12.22,40.23l8.07,15.13c-7.94,7.83-14.85,16.48-20.7,25.72l-16.5-4.63c-15.8-4.44-32.23,4.78-36.67,20.58l-6.37,22.69c-4.44,15.8,4.78,32.21,20.57,36.65l16.5,4.63c.16,9.57,1.24,19.18,3.32,28.7l-14.99,8.28c-14.37,7.93-19.6,26.03-11.65,40.39l11.38,20.64c7.93,14.37,26.02,19.58,40.39,11.65l14.99-8.28c6.94,6.85,14.5,12.9,22.53,18.11l-4.87,16.44c-4.65,15.74,4.31,32.28,20.06,36.95l22.6,6.69c15.73,4.68,32.28-4.31,36.93-20.05l4.87-16.44c9.58,.01,19.22-.94,28.76-2.9l8.07,15.13c7.72,14.48,25.73,19.96,40.21,12.23l20.79-11.09c14.48-7.72,19.96-25.73,12.23-40.21l-8.07-15.13c7.95-7.84,14.87-16.49,20.7-25.74l16.5,4.63c15.81,4.45,32.22-4.77,36.65-20.57l6.38-22.68c4.44-15.8-4.78-32.23-20.58-36.67l-16.5-4.63c-.15-9.58-1.25-19.18-3.32-28.7l14.99-8.28c14.37-7.93,19.6-26.01,11.67-40.39l-11.38-20.62Zm-85.53,146.64c-3.17,4.92-6.87,9.56-11.08,13.8-5.89,5.92-12.73,11.08-20.48,15.22-6.99,3.73-14.26,6.39-21.64,8.03-6.64,1.49-13.37,2.15-20.04,2.03-15.52-.28-30.71-4.8-43.87-13-5.65-3.55-10.93-7.77-15.68-12.63-5.57-5.67-10.42-12.23-14.35-19.58-3.53-6.61-6.1-13.49-7.76-20.46-1.59-6.63-2.34-13.35-2.3-20.01,.07-16.34,4.82-32.37,13.67-46.1,3.18-4.93,6.89-9.57,11.11-13.81,5.87-5.92,12.71-11.07,20.45-15.2,6.99-3.73,14.26-6.39,21.64-8.03,6.64-1.49,13.37-2.15,20.04-2.03,15.52,.28,30.7,4.78,43.85,12.99,5.67,3.54,10.95,7.76,15.7,12.62,5.57,5.67,10.43,12.23,14.36,19.6,3.53,6.61,6.09,13.48,7.75,20.44,1.59,6.63,2.34,13.35,2.3,20.01-.05,16.33-4.8,32.38-13.66,46.11Z"/>
        <path class="cls-4" d="M918.18,794.93c-7-9.08-20.02-10.76-29.09-3.77l-9.47,7.3c-5.52-3.97-11.36-7.35-17.44-10.1l1.62-11.85c1.56-11.35-6.39-21.82-17.74-23.36l-16.29-2.24c-11.35-1.55-21.81,6.39-23.36,17.74l-1.63,11.86c-6.6,1.01-13.14,2.68-19.51,5.05l-7.17-9.58c-6.87-9.18-19.86-11.05-29.03-4.2l-13.17,9.85c-9.17,6.86-11.04,19.86-4.18,29.03l7.17,9.58c-4.65,6.24-8.5,12.94-11.55,19.92l-11.87-1.45c-11.37-1.39-21.73,6.7-23.11,18.07l-2,16.32c-1.39,11.37,6.7,21.71,18.06,23.1l11.87,1.45c1.13,6.58,2.89,13.09,5.32,19.44l-9.47,7.3c-9.07,6.99-10.76,20.02-3.76,29.09l10.03,13.03c6.99,9.07,20.01,10.75,29.09,3.76l9.47-7.3c5.51,3.99,11.37,7.36,17.45,10.11l-1.62,11.85c-1.55,11.35,6.39,21.81,17.74,23.36l16.29,2.22c11.34,1.56,21.81-6.39,23.35-17.73l1.62-11.85c6.61-1.01,13.15-2.68,19.53-5.04l7.17,9.58c6.86,9.17,19.86,11.04,29.02,4.19l13.17-9.85c9.17-6.86,11.04-19.86,4.19-29.02l-7.17-9.58c4.66-6.25,8.51-12.94,11.56-19.94l11.87,1.45c11.38,1.4,21.72-6.69,23.1-18.06l2-16.31c1.39-11.37-6.7-21.73-18.07-23.11l-11.87-1.45c-1.12-6.59-2.89-13.09-5.32-19.44l9.47-7.3c9.07-6.99,10.77-20.01,3.77-29.09l-10.03-13.02Zm-43.49,110.18c-1.66,3.73-3.73,7.32-6.18,10.69-3.43,4.71-7.61,8.99-12.52,12.66-4.43,3.31-9.16,5.91-14.07,7.82-4.42,1.73-8.99,2.9-13.6,3.52-10.73,1.45-21.69-.06-31.63-4.33-4.27-1.85-8.36-4.2-12.15-7.05-4.44-3.32-8.48-7.33-11.97-11.99-3.13-4.19-5.63-8.66-7.52-13.29-1.8-4.41-3.03-8.96-3.7-13.56-1.68-11.27-.1-22.84,4.55-33.24,1.67-3.74,3.74-7.33,6.2-10.7,3.42-4.7,7.6-8.98,12.5-12.65,4.43-3.31,9.16-5.91,14.07-7.82,4.42-1.73,8.99-2.9,13.6-3.52,10.73-1.45,21.68,.05,31.61,4.33,4.29,1.84,8.37,4.19,12.16,7.05,4.44,3.32,8.48,7.33,11.98,12,3.13,4.19,5.63,8.65,7.51,13.28,1.8,4.41,3.03,8.96,3.7,13.56,1.69,11.27,.11,22.84-4.54,33.25Z"/>
      </g>
    </g>
  </g>
</svg>