<?xml version="1.0" encoding="UTF-8"?>
<svg id="Layer_1" data-name="Layer 1" xmlns="http://www.w3.org/2000/svg" viewBox="0 0 2000 2000">
  <defs>
    <style>
      .cls-1 {
        opacity: .07;
      }

      .cls-2 {
        opacity: .1;
      }

      .cls-3 {
        fill: #f7d6d3;
      }

      .cls-4 {
        fill: #f7f7f7;
      }

      .cls-5 {
        fill: #f8f8fa;
      }

      .cls-6 {
        fill: #f4f4f4;
      }

      .cls-7 {
        fill: #fff;
      }

      .cls-8 {
        fill: #ffe2b0;
      }

      .cls-9 {
        fill: #ffd580;
      }

      .cls-10 {
        fill: #fcc5c3;
      }

      .cls-11 {
        fill: #fbc34a;
      }

      .cls-12 {
        fill: #e5ac3c;
      }

      .cls-13 {
        fill: #ce9930;
      }

      .cls-14 {
        fill: #cacbcc;
      }

      .cls-15 {
        fill: #dce4ff;
      }

      .cls-16 {
        fill: #c5d0ef;
      }

      .cls-17 {
        fill: #e0e1e2;
      }

      .cls-18 {
        fill: #3c4cac;
      }

      .cls-19 {
        fill: #2e3436;
      }

      .cls-20 {
        fill: #5e73cc;
      }

      .cls-21 {
        opacity: .13;
      }

      .cls-22 {
        opacity: .19;
      }

      .cls-23 {
        opacity: .24;
      }

      .cls-24 {
        opacity: .63;
      }
    </style>
  </defs>
  <rect class="cls-7" width="2000" height="2000"/>
  <g>
    <g>
      <path class="cls-6" d="M653.04,1527.24c-4.67-81.28-12.36-191.98-69.08-279.22-86.51-133.05-57.02-238.8-57.02-238.8,0,0-9.83,124.51,82.57,192.73,35.21,26,62.71,87.91,83.26,154.58,18.75,60.82,31.71,125.59,39.5,170.7h-79.23Z"/>
      <path class="cls-6" d="M902.43,1185.65c4.83,100.75-19.49,244.16-59.94,341.59h-108.85c19.57-39.79,48.82-102.27,73.02-166.56,23.8-63.2,42.69-128.18,42.69-175.03,0-124.4,125.72-144.37,129.66-144.95-2.92,.84-82.37,24.55-76.57,144.95Z"/>
      <path class="cls-6" d="M815.92,1522.32c-.47,1.7-.97,3.36-1.48,4.92h-80.8c-.35,.69-.69,1.37-1.02,2.04-.13-.67-.24-1.35-.35-2.04h-20.3c-5.05-35.07-14.1-102.74-19.2-170.7-4.94-65.56-6.22-131.37,3.23-168.42,23.6-92.38,31.46-123.84,19.66-214.27-11.78-90.43,35.4-188.72,35.4-188.72,0,0-9.83,127.78,19.66,190.69,29.49,62.9,11.8,129.75,0,176.92-11.8,47.18-15.74,60.94,15.72,149.4,7.57,21.28,14.44,40.5,20.22,58.54,18.31,56.95,25.69,101.92,9.26,161.64Z"/>
    </g>
    <g>
      <path class="cls-4" d="M1523.04,1523c-4.67-81.28-12.36-191.98-69.08-279.22-86.51-133.05-57.02-238.8-57.02-238.8,0,0-9.83,124.51,82.57,192.73,35.21,26,62.71,87.91,83.26,154.58,18.75,60.82,31.71,125.59,39.5,170.7h-79.23Z"/>
      <path class="cls-4" d="M1772.43,1181.41c4.83,100.75-19.49,244.16-59.94,341.59h-108.85c19.57-39.79,48.82-102.27,73.02-166.56,23.8-63.2,42.69-128.18,42.69-175.03,0-124.4,125.72-144.37,129.66-144.95-2.92,.84-82.37,24.55-76.57,144.95Z"/>
      <path class="cls-4" d="M1685.92,1518.08c-.47,1.7-.97,3.36-1.48,4.92h-80.8c-.35,.69-.69,1.37-1.02,2.04-.13-.67-.24-1.35-.35-2.04h-20.3c-5.05-35.07-14.1-102.74-19.2-170.7-4.94-65.56-6.22-131.37,3.23-168.42,23.6-92.38,31.46-123.84,19.66-214.27-11.78-90.43,35.4-188.72,35.4-188.72,0,0-9.83,127.78,19.66,190.69,29.49,62.89,11.8,129.75,0,176.92-11.8,47.18-15.74,60.94,15.72,149.4,7.57,21.28,14.44,40.5,20.22,58.54,18.31,56.95,25.69,101.92,9.26,161.64Z"/>
    </g>
    <g>
      <path class="cls-6" d="M1037.45,1372.02c-4.67-90.95-12.36-214.84-69.08-312.46-86.51-148.88-57.02-267.22-57.02-267.22,0,0-9.83,139.33,82.57,215.67,35.21,29.1,62.71,98.38,83.26,172.98,18.75,68.05,31.71,140.54,39.5,191.02h-79.23Z"/>
      <path class="cls-6" d="M1286.84,989.77c4.83,112.74-19.49,273.22-59.94,382.25h-108.85c19.57-44.53,48.82-114.44,73.02-186.39,23.8-70.73,42.69-143.44,42.69-195.86,0-139.21,125.72-161.56,129.66-162.21-2.92,.94-82.37,27.47-76.57,162.21Z"/>
      <path class="cls-6" d="M1200.33,1366.51c-.47,1.9-.97,3.75-1.48,5.51h-80.8c-.35,.78-.69,1.53-1.02,2.29-.13-.76-.24-1.51-.35-2.29h-20.3c-5.05-39.24-14.1-114.97-19.2-191.02-4.94-73.36-6.22-147.01,3.23-188.47,23.6-103.38,31.46-138.58,19.66-239.77-11.78-101.19,35.4-211.18,35.4-211.18,0,0-9.83,142.99,19.66,213.39,29.49,70.38,11.8,145.19,0,197.98-11.8,52.79-15.74,68.2,15.72,167.19,7.57,23.81,14.44,45.32,20.22,65.5,18.31,63.73,25.69,114.05,9.26,180.88Z"/>
    </g>
    <g>
      <path class="cls-11" d="M564.91,1522.43c-2.7-47.06-7.16-111.16-40-161.68-50.09-77.04-33.02-138.27-33.02-138.27,0,0-5.69,72.1,47.81,111.6,20.39,15.06,36.31,50.9,48.21,89.51,10.85,35.21,18.36,72.72,22.87,98.84h-45.88Z"/>
      <path class="cls-11" d="M709.31,1324.64c2.8,58.34-11.29,141.37-34.71,197.79h-63.03c11.33-23.04,28.27-59.21,42.28-96.44,13.78-36.6,24.72-74.22,24.72-101.34,0-72.03,72.79-83.59,75.07-83.93-1.69,.49-47.69,14.21-44.34,83.93Z"/>
      <path class="cls-12" d="M659.22,1519.58c-.27,.98-.56,1.94-.85,2.85h-46.79c-.2,.4-.4,.79-.59,1.18-.07-.39-.14-.78-.2-1.18h-11.75c-2.92-20.3-8.16-59.49-11.12-98.84-2.86-37.96-3.6-76.07,1.87-97.52,13.66-53.49,18.21-71.7,11.38-124.07-6.82-52.36,20.49-109.27,20.49-109.27,0,0-5.69,73.99,11.38,110.41,17.07,36.42,6.83,75.13,0,102.44-6.83,27.32-9.11,35.29,9.1,86.51,4.38,12.32,8.36,23.45,11.71,33.89,10.6,32.98,14.88,59.01,5.36,93.59Z"/>
    </g>
    <g>
      <path class="cls-6" d="M281.94,1521.68c-4.67-81.28-12.36-191.98-69.08-279.22-86.51-133.05-57.02-238.8-57.02-238.8,0,0-9.83,124.51,82.57,192.73,35.21,26,62.71,87.91,83.26,154.58,18.75,60.82,31.71,125.59,39.5,170.7h-79.23Z"/>
      <path class="cls-6" d="M531.34,1180.09c4.83,100.75-19.49,244.16-59.94,341.59h-108.85c19.57-39.79,48.82-102.27,73.02-166.56,23.8-63.2,42.69-128.18,42.69-175.03,0-124.4,125.72-144.37,129.66-144.95-2.92,.84-82.37,24.55-76.57,144.95Z"/>
      <path class="cls-6" d="M444.82,1516.76c-.47,1.7-.97,3.36-1.48,4.92h-80.8c-.35,.69-.69,1.37-1.02,2.04-.13-.67-.24-1.35-.35-2.04h-20.3c-5.05-35.07-14.1-102.74-19.2-170.7-4.94-65.56-6.22-131.37,3.23-168.42,23.6-92.38,31.46-123.84,19.66-214.27-11.78-90.43,35.4-188.72,35.4-188.72,0,0-9.83,127.78,19.66,190.69,29.49,62.9,11.8,129.75,0,176.92-11.8,47.18-15.74,60.94,15.72,149.4,7.57,21.28,14.44,40.5,20.22,58.54,18.31,56.95,25.69,101.92,9.26,161.64Z"/>
    </g>
    <g>
      <path class="cls-11" d="M390.69,1089.8s-15.24-122.27-51.04-148.71c-35.8-26.44-31.99-74.69-31.99-74.69,0,0-11.43,40.98,22.09,92.53,33.52,51.55,22.85,124.25,31.23,145.4,8.38,21.15,29.71-14.54,29.71-14.54Z"/>
      <path class="cls-11" d="M379.26,1083.86s53.32-100.11,53.32-149.09,50.28-56.18,50.28-56.18c0,0-31.99,8.64-29.71,56.18,2.29,47.53-12.19,119.56-34.28,154.13-22.09,34.57-39.61-5.04-39.61-5.04Z"/>
      <path class="cls-12" d="M380.78,1076.66s-16.76-105.13-7.62-140.93c9.14-35.8,12.19-47.99,7.62-83.03-4.57-35.04,13.71-73.13,13.71-73.13,0,0-3.81,49.52,7.62,73.89,11.43,24.38,4.57,50.28,0,68.56-4.57,18.28-6.09,23.62,6.09,57.9,12.19,34.28,19.81,54.85,11.43,85.32-8.38,30.47-38.85,11.43-38.85,11.43Z"/>
      <path class="cls-18" d="M437.15,1072.09l-6.82,152.46c-.21,4.84-1.37,9.44-3.28,13.61h0c-5.8,12.63-18.54,21.33-33.24,21.33-19.62,0-35.74-15.48-36.54-35.09l-6.19-152.31h86.08Z"/>
      <g class="cls-2">
        <path d="M427.05,1238.16c-5.8,12.62-18.54,21.32-33.24,21.32-19.62,0-35.74-15.48-36.54-35.09l-6.19-152.31h16.3c-2.75,34.61-14.68,224.28,59.67,166.08Z"/>
      </g>
    </g>
    <g>
      <path class="cls-6" d="M1520.24,1534.28H1001.45c-64.28,0-116.39-52.11-116.39-116.39v-282.67h751.57v282.67c0,30.38-11.64,58.04-30.7,78.77-21.27,23.13-51.79,37.63-85.69,37.63Z"/>
      <path class="cls-17" d="M1540.99,1228.33H980.7c-69.43,0-125.71-32.57-125.71-72.75v-125.61c0-28.2,22.86-51.06,51.06-51.06h709.58c14.1,0,26.86,5.71,36.1,14.95s14.95,22,14.95,36.1v125.61c0,18.99-12.57,36.28-33.16,49.23-22.97,14.46-55.93,23.52-92.55,23.52Z"/>
      <rect class="cls-7" x="1416.88" y="1188.43" width="39.91" height="106.42" rx="6.27" ry="6.27"/>
      <rect class="cls-7" x="1057.72" y="1188.43" width="39.91" height="106.42" rx="6.27" ry="6.27"/>
      <path class="cls-14" d="M1411.28,982.24h-39.91v-57.97c0-41.38-33.67-75.05-75.06-75.05h-70.94c-41.38,0-75.05,33.67-75.05,75.05v57.97h-39.91v-57.97c0-63.39,51.57-114.96,114.96-114.96h70.94c63.39,0,114.97,51.57,114.97,114.96v57.97Z"/>
    </g>
    <path class="cls-18" d="M458.99,572.8l-28.18-24.68c-4.1-3.59-4.51-9.82-.92-13.92h0c3.59-4.1,9.82-4.51,13.92-.92l23.11,20.24c1.5,1.31,3.75,1.26,5.19-.11l65.44-62.43c3.94-3.76,10.19-3.61,13.95,.33h0c3.76,3.94,3.61,10.18-.33,13.94l-70.32,67.09c-6.07,5.79-15.54,5.99-21.85,.47Z"/>
    <g>
      <path class="cls-18" d="M1267.71,571.77l2.21-2.27c3.29-3.37,2.98-8.84-.66-11.83l-82.52-67.72c-3.44-2.83-8.53-2.31-11.34,1.14l-2.28,2.8c-2.8,3.44-2.28,8.51,1.16,11.31l82.59,67.19c3.23,2.63,7.93,2.35,10.83-.62Z"/>
      <path class="cls-18" d="M1176.38,571.77l-2.21-2.27c-3.29-3.37-2.98-8.84,.66-11.83l82.52-67.72c3.44-2.83,8.53-2.31,11.34,1.14l2.28,2.8c2.8,3.44,2.28,8.51-1.16,11.31l-82.59,67.19c-3.23,2.63-7.93,2.35-10.83-.62Z"/>
    </g>
    <g>
      <rect class="cls-15" x="367.1" y="602.23" width="199.93" height="199.93"/>
      <g class="cls-24">
        <path class="cls-7" d="M567.03,778.37v23.8h-199.93v-23.8c10.72-45.26,51.43-78.95,99.97-78.95s89.25,33.68,99.97,78.95Z"/>
      </g>
      <g class="cls-24">
        <circle class="cls-7" cx="470.98" cy="654.43" r="41.65"/>
      </g>
    </g>
    <g>
      <rect class="cls-11" x="1128.08" y="597.54" width="199.93" height="199.93"/>
      <g class="cls-24">
        <path class="cls-7" d="M1328.01,773.67v23.8h-199.93v-23.8c10.72-45.26,51.43-78.95,99.97-78.95s89.25,33.68,99.97,78.95Z"/>
      </g>
      <g class="cls-24">
        <circle class="cls-7" cx="1228.05" cy="652.87" r="41.65"/>
      </g>
    </g>
    <g>
      <polygon class="cls-20" points="1487.17 1126.98 1477.01 1152.63 1294.13 1080.11 1268 1069.76 1278.17 1044.1 1304.37 1054.49 1487.17 1126.98"/>
      <g class="cls-21">
        <path d="M1304.37,1054.49c-2.54,8.63-5.9,17.04-10.04,25.21-.07,.14-.14,.28-.21,.42l-26.13-10.36,10.17-25.66,26.2,10.39Z"/>
      </g>
      <path class="cls-18" d="M1612.71,1191.88h0c-4.84,12.2-19.86,17.69-33.56,12.25l-170.32-67.53,17.52-44.18,170.32,67.53c6.56,2.6,11.63,7.24,14.59,12.7,3.23,5.94,3.97,12.87,1.45,19.23Z"/>
      <path class="cls-20" d="M1146.66,1157.07c-55.86,0-106.69-30.76-132.65-80.28-11.16-21.26-17.06-45.27-17.06-69.43,0-82.55,67.16-149.7,149.7-149.7s149.7,67.16,149.7,149.7c0,23.78-5.42,46.54-16.12,67.63-25.68,50.63-76.86,82.08-133.58,82.08Z"/>
      <path class="cls-7" d="M1260.92,1007.37c0,18.56-4.43,36.1-12.29,51.6-18.86,37.18-57.44,62.65-101.96,62.65s-82.15-24.86-101.25-61.28c-8.31-15.84-13.01-33.86-13.01-52.98,0-63.1,51.16-114.26,114.26-114.26s114.26,51.16,114.26,114.26Z"/>
      <path class="cls-20" d="M1168.07,971.84c0-11.06-9.71-18.07-24.38-18.07s-25.52,6.33-32.75,16.71l-27.32-16.03c12.19-18.52,33.41-30.26,63.89-30.26,33.87,0,57.37,15.12,57.37,41.77,0,36.13-37.95,40.19-37.95,64.12h-34.09c0-31.61,35.23-38.61,35.23-58.26Zm-39.75,94.39c0-11.51,9.05-20.1,21.68-20.1s21.68,8.59,21.68,20.1-9.03,20.55-21.68,20.55-21.68-9.26-21.68-20.55Z"/>
    </g>
    <g>
      <g>
        <path class="cls-10" d="M1050.15,739.45l4.03-10.83s-7.88-15.82-5.98-20.57,8.26,5.45,10.32,4.99c2.06-.46,3.95-29.08,6.72-32.41,2.77-3.33,18.76,6.57,17.14,33.81-.96,16.18-10.43,25.89-10.43,25.89l-4.49,8.86-17.31-9.72Z"/>
        <path class="cls-11" d="M1032.96,863.1c0,4.26-.98,8.6-3.02,12.49-5.15,9.72-15.29,14.16-24.69,11.01-.65-.19-1.31-.46-1.96-.74l-26.32-11.84c-13.9-6.2-27.06-14.25-39.32-23.87l-28.04-22.02-16.76-13.14c-4.82-3.79-7.68-10.09-7.68-16.56,0-1.11,.08-2.22,.25-3.33,.82-5.18,3.35-9.9,7.03-12.95,9.89-8.23,25.18-13.97,35.97-7.59l54.93,38.21,39.89,29.89c6.29,4.72,9.73,12.49,9.73,20.45Z"/>
        <path class="cls-11" d="M1004.46,886.04c12.18,4.86,25.81-1.74,29.73-14.22,0,0,23.02-45.92,41.03-129.95,.52-2.41-2.84-4.26-7.24-5.51-7.52-2.25-18-3.04-18-3.04l-57.66,122.11c-5.31,11.17-.49,24.49,10.42,29.8,.49,.33,1.09,.61,1.71,.81Z"/>
        <g class="cls-21">
          <polygon points="919.5 835.9 921.69 801.75 938.62 852.38 919.5 835.9"/>
        </g>
        <path class="cls-10" d="M579.15,959.18l-11.48,6.42s-19.16-6.12-24.18-3.15c-5.02,2.97,7.56,8.34,7.4,10.74-.16,2.4-32.02,9.5-35.28,13.19-3.26,3.69,10.65,19.95,41.01,13.39,18.03-3.9,27.3-16.23,27.3-16.23l9.18-6.58-13.95-17.78Z"/>
        <path class="cls-11" d="M766.78,814.94l-28.25,57.91-22.41,42.29c-2.08,3.95-5.35,7.05-9.04,8.98-1.59,.84-3.37,1.49-5.12,1.85-4.59,1.11-9.56,.77-14.1-1.38-9.67-4.53-14.59-15.33-11.64-25.55l7.85-27.28c4.11-14.34,9.88-28.16,17.16-41.21l26.55-47.6c1.7-3.1,4.32-5.49,7.29-7.05,2.9-1.52,6.17-2.31,9.54-2.05,4.61,.35,8.93,2.43,12.03,5.88,1.12,1.26,2.21,2.63,3.26,4.11,6.57,9.02,10.79,21.29,6.88,31.09Z"/>
        <path class="cls-11" d="M716,892.7h0c6.59,11.29,2.23,25.8-9.49,31.59,0,0-41.95,29.73-122.18,60.38-6.22,2.38-12.29-23.63-12.29-23.63l111.84-75.65c10.81-7.31,25.54-3.95,32.11,7.31Z"/>
        <g class="cls-21">
          <path d="M769.23,810.62l-28.25,57.91-22.41,42.29c-2.08,3.95-2.84,6.83-6.16,9.35-4.16,3.16-6.12,4.37-7.73,5.48l57.67-146.13c6.57,9.02,10.79,21.29,6.88,31.09Z"/>
        </g>
        <polygon class="cls-3" points="900.7 1421.07 901.13 1497.74 873.48 1495.66 865.67 1418.45 900.7 1421.07"/>
        <path class="cls-11" d="M870.92,1489.69v28.4c.12,3.99,2.71,7.17,5.94,7.17h72.72v-.37c0-2.51-.53-4.81-1.47-6.8-1.82-4.14-5.35-6.95-9.41-6.95-1.77,0-3.53-.52-5.12-1.55l-29.95-19.89h-32.71Z"/>
        <path class="cls-18" d="M820.05,1021.16c2.31,45.24,6.33,86.1,10.57,120.03,7.66,61.99,16,100.83,16,100.83l16.59,237.98h50.6l5.88-208.36c3.87-73.22,2.46-146.67-4.09-219.67l-3.27-37.28-92.27,6.47Z"/>
        <g class="cls-23">
          <path d="M870.92,1518.09c.12,3.99,2.71,7.17,5.94,7.17h72.72v-.37c0-2.51-.53-4.81-1.47-6.8h-77.19Z"/>
        </g>
        <polygon class="cls-3" points="762.96 1421.07 762.53 1497.74 790.19 1495.66 797.99 1418.45 762.96 1421.07"/>
        <path class="cls-11" d="M792.74,1489.69v28.4c-.12,3.99-2.77,7.17-6.07,7.17h-74.31v-.37c0-2.51,.54-4.81,1.5-6.8,1.86-4.14,5.47-6.95,9.62-6.95,1.8,0,3.61-.52,5.23-1.55l30.6-19.89h33.43Z"/>
        <path class="cls-18" d="M843.62,1021.16c-2.31,45.24-6.33,86.1-10.57,120.03-7.66,61.99-16,100.83-16,100.83l-16.59,237.98h-50.6l-5.88-208.36c-3.87-73.22-2.46-146.67,4.09-219.67l3.27-37.28,92.27,6.47Z"/>
        <g class="cls-22">
          <path d="M833.05,1141.19c-7.66,61.99-16,100.83-16,100.83l-16.59,237.98h-7.74s4.17-212.23,12.2-243.86c8.04-31.63,15.13-50.3,15.13-50.3,0,0,4.67-49.71,13-44.65Z"/>
        </g>
        <g class="cls-23">
          <path d="M792.74,1518.09c-.12,3.99-2.77,7.17-6.07,7.17h-74.31v-.37c0-2.51,.54-4.81,1.5-6.8h78.88Z"/>
        </g>
        <rect class="cls-5" x="783.55" y="768.16" width="100.22" height="246.27"/>
        <g>
          <path class="cls-19" d="M872.94,651.5s6.1,20.65,.27,38.74l-8.18-47.68,7.83,3.91"/>
          <path class="cls-10" d="M852.37,753.89l-2.13-38.17-35.27,.15-3.92,38.65c-.25,10.58,11.45,19.23,22.25,19.18h0c10.97-.05,19.66-9.08,19.06-19.81Z"/>
          <g class="cls-22">
            <path d="M851.73,742.12c-18,4.83-26.63-3.26-26.63-3.26,12.53,0,23.68-6.58,26.02-8.04l.62,11.31Z"/>
          </g>
          <ellipse class="cls-10" cx="825.23" cy="679.95" rx="49.33" ry="58.71" transform="translate(-57.45 76.45) rotate(-5.13)"/>
          <path class="cls-19" d="M860.52,657.95c-22.35-.89-30.46-2.31-33.34-3.34l8.11,1.59s-16.53-.38-22.96-.18c-41.78,1.27-30.74,36.69-29.03,52.46,.19,1.77-1.74,3.02-3.25,2.08-6.02-3.75-13.85-16.14-16.36-40.79-.01-.15-.03-.3-.05-.44,1.01-34.85,14.71-33.53,14.71-33.53,0,0-3.01-32.07,30.69-34.4,23.39-1.62,26.01,9.05,55.68-.74,30.02-9.91,33.88,58.81-4.2,57.3Z"/>
          <path class="cls-10" d="M772.89,695.03c3.48,6.82,10.74,10.09,16.23,7.29,5.48-2.8,7.1-10.59,3.62-17.42s-10.74-10.09-16.23-7.29c-5.48,2.8-7.1,10.59-3.62,17.42Z"/>
          <path class="cls-10" d="M883.77,681.98c-1.51,7.51-7.62,12.62-13.65,11.4-6.03-1.21-9.7-8.28-8.19-15.79,1.51-7.51,7.62-12.62,13.65-11.4,6.03,1.21,9.7,8.28,8.19,15.79Z"/>
        </g>
        <polygon class="cls-9" points="820.28 767.21 845.22 767.21 847.97 780.18 842.03 789.81 823.47 789.81 817.68 781.11 820.28 767.21"/>
        <path class="cls-8" d="M833.04,768.16l-11.97,7.87-9.74,6.4-4.18,2.69s-3.99-13.44-4.27-23.48c-.28-4.16,.19-7.68,1.86-9.47l2.88,1.6,25.42,14.4Z"/>
        <path class="cls-8" d="M832.07,768.16l11.97,7.87,9.74,6.4,4.18,2.69s3.99-13.44,4.27-23.48c.28-4.16-.19-7.68-1.86-9.47l-2.88,1.6-25.42,14.4Z"/>
        <polygon class="cls-9" points="823.47 789.81 808.1 978.91 831 1001.4 855.4 980.01 842.03 789.81 823.47 789.81"/>
        <path class="cls-11" d="M927.38,1031.86s-1.72,.49-4.66,1.14c-12.43,3.27-47.41,11.28-71.28,7.6-6.13-.9-11.69-6.05-16.51-14.31-.82-1.39-1.55-2.94-2.37-4.58-16.43-34.01-21.42-107.17-2.37-164.47,11.28-33.76,18.88-58.77,23.62-75.86,5.56-19.7,7.52-28.86,7.52-28.86l.9,.33,11.12,3.51,54.03,17.57s-3.68,9.81-5.72,44.63c-2.04,36.87-2.29,101.94,5.72,213.27Z"/>
        <path class="cls-11" d="M815.8,1040.04c-.65,.33-1.39,.49-2.13,.57-29.51,4.5-75.94-8.75-75.94-8.75,15.61-216.21,0-257.9,0-257.9l54.03-17.57,11.12-3.51,.9-.33s1.96,9.16,7.52,28.86c4.74,17.08,12.34,42.1,23.62,75.86,1.47,4.33,2.78,8.75,3.92,13.24q-.08,.08,0,.08c18.8,72.02,3.52,161.2-23.05,169.46Z"/>
        <g class="cls-21">
          <path d="M847.19,985.27c-3.51,18.64-7.93,31.8-12.26,41.04-.82-1.39-1.55-2.94-2.37-4.58,15.12-31.47,20.6-96.29,6.29-151.15,5.23,17.33,17.57,65.89,8.34,114.69Z"/>
        </g>
        <polygon class="cls-13" points="859.75 751.64 878.33 756.08 861.39 796.53 868.16 806.97 832.14 850.03 859.75 751.64"/>
        <polygon class="cls-13" points="803.76 752.42 785.17 756.86 802.11 797.31 795.35 807.75 831.36 850.81 803.76 752.42"/>
      </g>
      <g>
        <path class="cls-16" d="M644.45,1062.22v78.73c0,8.46-3.24,16.17-8.56,21.94-5.92,6.44-14.42,10.48-23.86,10.48h-144.49c-17.91,0-32.42-14.52-32.42-32.42v-78.73h209.33Z"/>
        <g class="cls-1">
          <path d="M644.45,1062.22v34.48c-.28,.19-.57,.38-.86,.56-6.4,4.02-15.58,6.55-25.78,6.55h-156.05c-10.67,0-20.22-2.76-26.64-7.12v-34.48h209.33Z"/>
        </g>
        <path class="cls-15" d="M617.81,1088.15h-156.05c-19.34,0-35.01-9.07-35.01-20.26v-34.99c0-7.85,6.37-14.22,14.22-14.22h197.63c3.93,0,7.48,1.59,10.06,4.17s4.17,6.13,4.17,10.06v34.99c0,5.29-3.5,10.1-9.23,13.71-6.4,4.03-15.58,6.55-25.78,6.55Z"/>
        <rect class="cls-18" x="583.24" y="1077.04" width="11.11" height="29.64" rx="4.78" ry="4.78"/>
        <rect class="cls-18" x="483.21" y="1077.04" width="11.11" height="29.64" rx="4.78" ry="4.78"/>
        <path class="cls-18" d="M581.68,1019.61h-11.11v-16.15c0-11.53-9.38-20.9-20.91-20.9h-19.76c-11.53,0-20.9,9.38-20.9,20.9v16.15h-11.11v-16.15c0-17.66,14.36-32.02,32.02-32.02h19.76c17.66,0,32.02,14.36,32.02,32.02v16.15Z"/>
      </g>
    </g>
    <path class="cls-15" d="M532.59,1328.61H262.28v-17.43c0-28.98,23.49-52.47,52.47-52.47h165.37c28.98,0,52.47,23.49,52.47,52.47v17.43Z"/>
    <rect class="cls-16" x="290.24" y="1328.61" width="37.28" height="193.41"/>
    <rect class="cls-16" x="467.34" y="1328.61" width="37.28" height="193.41"/>
    <g>
      <path class="cls-11" d="M1598.98,1534.09c-2.45-42.59-6.48-100.61-36.2-146.33-45.34-69.72-29.88-125.14-29.88-125.14,0,0-5.15,65.25,43.27,101,18.45,13.63,32.86,46.07,43.63,81.01,9.82,31.87,16.62,65.82,20.7,89.46h-41.52Z"/>
      <path class="cls-11" d="M1729.67,1355.08c2.53,52.8-10.22,127.95-31.41,179.01h-57.04c10.25-20.85,25.58-53.59,38.26-87.29,12.47-33.12,22.37-67.17,22.37-91.72,0-65.19,65.88-75.66,67.95-75.96-1.53,.44-43.17,12.86-40.13,75.96Z"/>
      <path class="cls-12" d="M1684.33,1531.51c-.25,.89-.51,1.76-.77,2.58h-42.35c-.18,.36-.36,.72-.53,1.07-.07-.35-.12-.71-.18-1.07h-10.64c-2.65-18.38-7.39-53.84-10.06-89.46-2.59-34.36-3.26-68.84,1.69-88.26,12.37-48.41,16.48-64.9,10.3-112.29-6.17-47.39,18.55-98.9,18.55-98.9,0,0-5.15,66.96,10.3,99.93,15.45,32.96,6.18,67.99,0,92.72-6.18,24.72-8.25,31.94,8.24,78.3,3.97,11.15,7.57,21.22,10.6,30.68,9.59,29.84,13.47,53.41,4.85,84.71Z"/>
    </g>
    <path class="cls-18" d="M1679.17,1480.36c-.06-.29-.1-.58-.15-.88h.59c-.15,.3-.3,.59-.44,.88Z"/>
    <path class="cls-18" d="M732.86,464.84h200.92c20.39,0,36.94,16.55,36.94,36.94v2.84c0,20.39-16.55,36.94-36.94,36.94h-237.86v-39.78c0-20.39,16.55-36.94,36.94-36.94Z"/>
    <g>
      <path class="cls-7" d="M800.87,490.03v28.94h-6.7v-11.87h-13.15v11.87h-6.7v-28.94h6.7v11.41h13.15v-11.41h6.7Z"/>
      <path class="cls-7" d="M807.73,490.03h6.7v28.94h-6.7v-28.94Z"/>
      <path class="cls-7" d="M839.73,518.97l-5.58-8.06h-6.16v8.06h-6.7v-28.94h12.53c2.56,0,4.79,.43,6.68,1.28s3.34,2.07,4.36,3.64c1.02,1.57,1.53,3.43,1.53,5.58s-.52,4-1.55,5.56c-1.03,1.56-2.5,2.75-4.4,3.58l6.49,9.3h-7.19Zm-1.7-22.18c-1.05-.87-2.58-1.3-4.59-1.3h-5.46v10.09h5.46c2.01,0,3.54-.44,4.59-1.32,1.05-.88,1.57-2.12,1.57-3.72s-.52-2.87-1.57-3.74Z"/>
      <path class="cls-7" d="M874.08,513.6v5.37h-22.41v-28.94h21.87v5.37h-15.21v6.28h13.44v5.21h-13.44v6.7h15.75Z"/>
    </g>
  </g>
</svg>